{
	"asset":{
		"generator":"Khronos glTF Blender I/O v4.1.62",
		"version":"2.0"
	},
	"scene":0,
	"scenes":[
		{
			"name":"Scene",
			"nodes":[
				29
			]
		}
	],
	"nodes":[
		{
			"name":"leg_left_foot_end",
			"rotation":[
				9.914291609902648e-08,
				0,
				0,
				1
			],
			"scale":[
				1,
				0.9999999403953552,
				1
			],
			"translation":[
				0,
				4.809593677520752,
				9.027189662447199e-08
			]
		},
		{
			"children":[
				0
			],
			"name":"leg_left_foot",
			"rotation":[
				-1.9062397882407822e-07,
				0,
				0,
				1
			],
			"translation":[
				0,
				2.6062095165252686,
				-3.0087858249316923e-07
			]
		},
		{
			"children":[
				1
			],
			"name":"leg_left_bot",
			"rotation":[
				9.14806008722735e-08,
				0,
				0,
				1
			],
			"translation":[
				0,
				3.185361623764038,
				6.617847247980535e-08
			]
		},
		{
			"children":[
				2
			],
			"name":"leg_left_top",
			"rotation":[
				0,
				0,
				-1,
				0
			],
			"translation":[
				7.4358062744140625,
				-6.150192737579346,
				-5.002920627593994
			]
		},
		{
			"name":"pinky_right3_end",
			"rotation":[
				-9.927899554895703e-06,
				1.6741454601287842e-05,
				-2.2491440176963806e-06,
				1
			],
			"scale":[
				1,
				0.9999999403953552,
				0.9999999403953552
			],
			"translation":[
				2.384185791015625e-07,
				0.17301440238952637,
				-8.940696716308594e-07
			]
		},
		{
			"children":[
				4
			],
			"name":"pinky_right3",
			"rotation":[
				1.4262275726650842e-05,
				-2.3946167857502587e-05,
				3.2093378194986144e-06,
				1
			],
			"scale":[
				1,
				0.9999999403953552,
				0.9999999403953552
			],
			"translation":[
				-2.384185791015625e-07,
				0.34602177143096924,
				4.172325134277344e-07
			]
		},
		{
			"children":[
				5
			],
			"name":"pinky_right2",
			"rotation":[
				-2.8945505619049072e-06,
				5.7443976402282715e-06,
				1.6596168279647827e-06,
				1
			],
			"translation":[
				7.152557373046875e-07,
				0.3534557819366455,
				2.384185791015625e-07
			]
		},
		{
			"children":[
				6
			],
			"name":"pinky_right1",
			"rotation":[
				3.091991231940483e-07,
				-8.419157211392303e-07,
				-9.452925269215484e-07,
				1
			],
			"scale":[
				0.9999999403953552,
				0.9999999403953552,
				0.9999998807907104
			],
			"translation":[
				0,
				0.7273714542388916,
				-7.748603820800781e-07
			]
		},
		{
			"children":[
				7
			],
			"name":"pinky_right0",
			"rotation":[
				-5.867332220077515e-07,
				1.2293457984924316e-06,
				7.590278414681961e-07,
				1
			],
			"scale":[
				1.0000001192092896,
				1,
				1
			],
			"translation":[
				3.5762786865234375e-07,
				2.8882932662963867,
				3.5762786865234375e-07
			]
		},
		{
			"children":[
				8
			],
			"name":"arm_right_hand",
			"rotation":[
				0.04030238091945648,
				-0.02407265268266201,
				0.12434627115726471,
				0.9911277890205383
			],
			"scale":[
				1,
				1.0000001192092896,
				1
			],
			"translation":[
				-8.344650268554688e-07,
				2.718174695968628,
				-3.5762786865234375e-07
			]
		},
		{
			"children":[
				9
			],
			"name":"arm_right_bot",
			"rotation":[
				-4.12575900554657e-07,
				6.034970283508301e-07,
				3.0547380447387695e-07,
				1
			],
			"translation":[
				-1.3113021850585938e-06,
				2.8625235557556152,
				0
			]
		},
		{
			"children":[
				10
			],
			"name":"arm_right_top",
			"rotation":[
				0.1136072427034378,
				-0.12870535254478455,
				0.09628663957118988,
				0.9804372787475586
			],
			"scale":[
				0.9999999403953552,
				1.0000001192092896,
				1
			],
			"translation":[
				-5.960464477539063e-08,
				1.2633166313171387,
				4.470348358154297e-07
			]
		},
		{
			"children":[
				11
			],
			"name":"shoulder_right",
			"rotation":[
				-0.030174575746059418,
				0,
				0.7380630373954773,
				0.6740567684173584
			],
			"scale":[
				1.0000001192092896,
				1,
				1
			],
			"translation":[
				-14.00113582611084,
				8.610488891601562,
				3.9196977615356445
			]
		},
		{
			"name":"leg_right_foot_end",
			"rotation":[
				-1.4347858012797587e-08,
				0,
				0,
				1
			],
			"translation":[
				0,
				4.154254913330078,
				9.252039490093011e-08
			]
		},
		{
			"children":[
				13
			],
			"name":"leg_right_foot",
			"rotation":[
				-8.522407668465348e-09,
				0,
				0,
				1
			],
			"translation":[
				0,
				2.606208562850952,
				6.527670848299749e-08
			]
		},
		{
			"children":[
				14
			],
			"name":"leg_right_bot",
			"rotation":[
				2.286981271026889e-08,
				0,
				0,
				1
			],
			"translation":[
				0,
				3.185361623764038,
				-5.30308170709759e-08
			]
		},
		{
			"children":[
				15
			],
			"name":"leg_right_top",
			"rotation":[
				0,
				0,
				-1,
				0
			],
			"translation":[
				-9.072016716003418,
				-6.150193214416504,
				-2.264353036880493
			]
		},
		{
			"name":"pinky_left3_end",
			"rotation":[
				-2.2165474433677446e-07,
				-2.8666106572927674e-06,
				-1.4131422176433261e-05,
				1
			],
			"scale":[
				1,
				1.0000001192092896,
				1.0000001192092896
			],
			"translation":[
				5.662441253662109e-07,
				0.07713288068771362,
				2.384185791015625e-07
			]
		},
		{
			"children":[
				17
			],
			"name":"pinky_left3",
			"rotation":[
				3.932975687348517e-06,
				8.447096661257092e-06,
				1.160870488092769e-05,
				1
			],
			"scale":[
				0.9999999403953552,
				0.9999999403953552,
				0.9999999403953552
			],
			"translation":[
				3.8743019104003906e-07,
				0.1542772650718689,
				-3.8743019104003906e-07
			]
		},
		{
			"children":[
				18
			],
			"name":"pinky_left2",
			"rotation":[
				-8.79354865901405e-06,
				-1.2950973541592248e-05,
				7.589348570036236e-06,
				1
			],
			"scale":[
				0.9999999403953552,
				0.9999998807907104,
				0.9999999403953552
			],
			"translation":[
				6.258487701416016e-07,
				0.15757766366004944,
				-1.0728836059570312e-06
			]
		},
		{
			"children":[
				19
			],
			"name":"pinky_left1",
			"rotation":[
				6.404705800377997e-06,
				9.773299098014832e-06,
				-3.7872232496738434e-06,
				1
			],
			"scale":[
				1,
				1,
				0.9999999403953552
			],
			"translation":[
				-1.1026859283447266e-06,
				0.32429471611976624,
				4.76837158203125e-07
			]
		},
		{
			"children":[
				20
			],
			"name":"pinky_left0",
			"rotation":[
				-3.1478703022003174e-07,
				-1.680106038293161e-06,
				-6.383983418345451e-06,
				1
			],
			"scale":[
				1,
				1,
				0.9999999403953552
			],
			"translation":[
				-5.662441253662109e-07,
				1.2876927852630615,
				-5.960464477539063e-08
			]
		},
		{
			"children":[
				21
			],
			"name":"arm_left_hand",
			"rotation":[
				0.009436821565032005,
				0.03549393638968468,
				0.11469289660453796,
				0.9927219152450562
			],
			"scale":[
				0.9999999403953552,
				1,
				0.9999999403953552
			],
			"translation":[
				-1.5497207641601562e-06,
				1.1483522653579712,
				1.9371509552001953e-07
			]
		},
		{
			"children":[
				22
			],
			"name":"arm_left_bot",
			"rotation":[
				1.6437844863048667e-07,
				1.7601998081318015e-07,
				-1.1278317515461822e-06,
				1
			],
			"scale":[
				0.9999999403953552,
				0.9999998807907104,
				0.9999999403953552
			],
			"translation":[
				5.364418029785156e-07,
				1.2093000411987305,
				-7.450580596923828e-08
			]
		},
		{
			"children":[
				23
			],
			"name":"arm_left_top",
			"rotation":[
				0.01338992640376091,
				0.03991289064288139,
				0.08409115672111511,
				0.9955683350563049
			],
			"scale":[
				0.9999998807907104,
				1,
				0.9999999403953552
			],
			"translation":[
				4.6193599700927734e-07,
				0.4809652864933014,
				-1.30385160446167e-08
			]
		},
		{
			"children":[
				24
			],
			"name":"shoulder_left",
			"rotation":[
				0.014004570432007313,
				-4.960650779040066e-10,
				-0.93871009349823,
				0.3444231152534485
			],
			"scale":[
				1.000000238418579,
				1.0000001192092896,
				1
			],
			"translation":[
				20.018491744995117,
				12.863676071166992,
				-3.302447557449341
			]
		},
		{
			"children":[
				3,
				12,
				16,
				25
			],
			"name":"body",
			"rotation":[
				-5.006386345485225e-06,
				0,
				0,
				1
			],
			"scale":[
				1,
				0.9999999403953552,
				1
			],
			"translation":[
				1.1920928955078125e-07,
				16.75135040283203,
				-0.0001677375112194568
			]
		},
		{
			"children":[
				26
			],
			"name":"root",
			"rotation":[
				-0.7071031928062439,
				0,
				0,
				0.7071103453636169
			],
			"translation":[
				-1.7523669004440308,
				0.33776184916496277,
				31.802541732788086
			]
		},
		{
			"mesh":0,
			"name":"tripo_convert_2f4b2001-03c0-4ef7-87a6-f7ed30969cd3",
			"skin":0
		},
		{
			"children":[
				28,
				27
			],
			"name":"rig",
			"rotation":[
				0.7071068286895752,
				0,
				0,
				0.7071068286895752
			]
		}
	],
	"materials":[
		{
			"doubleSided":true,
			"name":"tripo_mat_2f4b2001-03c0-4ef7-87a6-f7ed30969cd3",
			"normalTexture":{
				"index":0
			},
			"pbrMetallicRoughness":{
				"baseColorTexture":{
					"index":1
				},
				"metallicFactor":0,
				"roughnessFactor":0
			}
		}
	],
	"meshes":[
		{
			"name":"tripo_convert_2f4b2001-03c0-4ef7-87a6-f7ed30969cd3",
			"primitives":[
				{
					"attributes":{
						"POSITION":0,
						"NORMAL":1,
						"TEXCOORD_0":2,
						"JOINTS_0":3,
						"WEIGHTS_0":4
					},
					"indices":5,
					"material":0
				}
			]
		}
	],
	"textures":[
		{
			"sampler":0,
			"source":0
		},
		{
			"sampler":0,
			"source":1
		}
	],
	"images":[
		{
			"mimeType":"image/jpeg",
			"name":"Normal_Bake",
			"uri":"Normal_Bake.jpg"
		},
		{
			"mimeType":"image/jpeg",
			"name":"Metallic",
			"uri":"Metallic.jpg"
		}
	],
	"skins":[
		{
			"inverseBindMatrices":6,
			"joints":[
				27,
				26,
				3,
				2,
				1,
				0,
				12,
				11,
				10,
				9,
				8,
				7,
				6,
				5,
				4,
				16,
				15,
				14,
				13,
				25,
				24,
				23,
				22,
				21,
				20,
				19,
				18,
				17
			],
			"name":"rig"
		}
	],
	"accessors":[
		{
			"bufferView":0,
			"componentType":5126,
			"count":7709,
			"max":[
				28.1533203125,
				31.91429328918457,
				25.944406509399414
			],
			"min":[
				-29.113290786743164,
				-31.802539825439453,
				-25.268882751464844
			],
			"type":"VEC3"
		},
		{
			"bufferView":1,
			"componentType":5126,
			"count":7709,
			"type":"VEC3"
		},
		{
			"bufferView":2,
			"componentType":5126,
			"count":7709,
			"type":"VEC2"
		},
		{
			"bufferView":3,
			"componentType":5121,
			"count":7709,
			"type":"VEC4"
		},
		{
			"bufferView":4,
			"componentType":5126,
			"count":7709,
			"type":"VEC4"
		},
		{
			"bufferView":5,
			"componentType":5123,
			"count":21273,
			"type":"SCALAR"
		},
		{
			"bufferView":6,
			"componentType":5126,
			"count":28,
			"type":"MAT4"
		}
	],
	"bufferViews":[
		{
			"buffer":0,
			"byteLength":92508,
			"byteOffset":0,
			"target":34962
		},
		{
			"buffer":0,
			"byteLength":92508,
			"byteOffset":92508,
			"target":34962
		},
		{
			"buffer":0,
			"byteLength":61672,
			"byteOffset":185016,
			"target":34962
		},
		{
			"buffer":0,
			"byteLength":30836,
			"byteOffset":246688,
			"target":34962
		},
		{
			"buffer":0,
			"byteLength":123344,
			"byteOffset":277524,
			"target":34962
		},
		{
			"buffer":0,
			"byteLength":42546,
			"byteOffset":400868,
			"target":34963
		},
		{
			"buffer":0,
			"byteLength":1792,
			"byteOffset":443416
		}
	],
	"samplers":[
		{
			"magFilter":9729,
			"minFilter":9987
		}
	],
	"buffers":[
		{
			"byteLength":445208,
			"uri":"tripo_convert_2f4b2001-03c0-4ef7-87a6-f7ed30969cd3.bin"
		}
	]
}
